<svg id="Layer_1" data-name="Layer 1" xmlns="http://www.w3.org/2000/svg" viewBox="0 0 382.19 165.35"><defs><style>.cls-1{fill:#fff;}</style></defs><title>Amana Big Bazar logo 400</title><path class="cls-1" d="M313.81,36.71c-7.33,0-13.29-7.14-13.29-15.92s6-15.93,13.29-15.93S327.1,12,327.1,20.79,321.14,36.71,313.81,36.71Zm0-29.36c-6,0-10.8,6-10.8,13.44s4.84,13.43,10.8,13.43,10.8-6,10.8-13.43S319.76,7.35,313.81,7.35Z"/><path class="cls-1" d="M68.35,134.88c-.19,1.24-.51,2.29-.64,3.21l-1.17,8.63-.67,6.18a8.09,8.09,0,0,0,2,.29,6.57,6.57,0,0,0,1.27-.14l-.15.85c-.35,0-.67,0-.94,0a13.29,13.29,0,0,1-1.4-.09c-.94-.1-1.53-.15-1.78-.15a14.14,14.14,0,0,0-1.92.19,18,18,0,0,0,.77-2.45,28.18,28.18,0,0,0,.48-3.13c-1.16,0-3,0-5.41.07q-3.8,5.79-5.57,7.28a5.37,5.37,0,0,1-3.37,1.49,2.05,2.05,0,0,1-1.25-.32,1,1,0,0,1-.41-.83.93.93,0,0,1,.24-.65.82.82,0,0,1,.6-.25,3,3,0,0,1,.57.08,6.66,6.66,0,0,0,1.19.21A3.4,3.4,0,0,0,53,154.26a47.09,47.09,0,0,0,5.82-7.76,101.66,101.66,0,0,1,7.06-9.74Zm-4,12.33a72.56,72.56,0,0,1,1.43-8.85c-1.26,1.67-2,2.73-2.34,3.17l-3.84,5.68c.83,0,2,0,3.54,0C63.49,147.26,63.89,147.24,64.32,147.21Z"/><path class="cls-1" d="M91,136.09a50.57,50.57,0,0,0-2.32,6.73l-2.22,7.78a11.62,11.62,0,0,1-2.95,5.47,6.08,6.08,0,0,1-4.16,1.74,3.9,3.9,0,0,1-2.4-.67,1.86,1.86,0,0,1-.91-1.48.92.92,0,0,1,.27-.65.82.82,0,0,1,.61-.29,1.61,1.61,0,0,1,1.09.62,5.59,5.59,0,0,0,1.24,1,2.54,2.54,0,0,0,1.13.31,1.83,1.83,0,0,0,.93-.23,3.34,3.34,0,0,0,1.12-1.22,45.9,45.9,0,0,0,2-5.53q1.26-3.92,2.43-8.12l1.3-4.55-.71,0a6.38,6.38,0,0,0-3.93,1.15,3.09,3.09,0,0,0-1.55,2.41,1.9,1.9,0,0,0,.38,1,1.72,1.72,0,0,1,.36.85.92.92,0,0,1-.29.68.94.94,0,0,1-.69.29,1,1,0,0,1-.86-.46,2.26,2.26,0,0,1-.34-1.36,4.63,4.63,0,0,1,1.19-3.06,6.77,6.77,0,0,1,3.2-2,14.52,14.52,0,0,1,4.07-.43Z"/><path class="cls-1" d="M98.56,141.15a3.06,3.06,0,0,1,2.44,1.16,5,5,0,0,1,1,3.24,8.79,8.79,0,0,1-2.33,6,6.67,6.67,0,0,1-4.93,2.63,3.37,3.37,0,0,1-2.58-1,4,4,0,0,1-1-2.85A10.1,10.1,0,0,1,93,144.45,6.63,6.63,0,0,1,98.56,141.15Zm-1.27,1.12c-.84,0-1.66.6-2.45,1.81a9.1,9.1,0,0,0-1.19,5,5.56,5.56,0,0,0,.73,3.07,1.66,1.66,0,0,0,1.43.82,2.85,2.85,0,0,0,2.29-1.56,8.93,8.93,0,0,0,1.31-5,6.34,6.34,0,0,0-.6-3.2A1.77,1.77,0,0,0,97.29,142.27Z"/><path class="cls-1" d="M113.78,141.54h2.13l-1.41,5.22a42.59,42.59,0,0,0-1.24,5.17.62.62,0,0,0,.14.43.4.4,0,0,0,.3.15,1.11,1.11,0,0,0,.59-.22,19,19,0,0,0,1.87-1.73l.49.55q-3,3.12-4.42,3.12a1,1,0,0,1-.81-.37,1.44,1.44,0,0,1-.34-1,9,9,0,0,1,.33-2.08,12.9,12.9,0,0,1-3.29,2.67,4.6,4.6,0,0,1-2.25.77,1,1,0,0,1-.82-.35,1.63,1.63,0,0,1-.3-1.09,6.47,6.47,0,0,1,.14-1.26c.12-.62.45-1.88,1-3.78a26.39,26.39,0,0,0,1-4.32q0-.42-.3-.42a1.53,1.53,0,0,0-.73.28,11.71,11.71,0,0,0-1.58,1.33l-.66-.52a18,18,0,0,1,3.06-2.35,3.92,3.92,0,0,1,1.69-.56.74.74,0,0,1,.58.26,1.25,1.25,0,0,1,.23.82,28.47,28.47,0,0,1-1.08,5.06,32.74,32.74,0,0,0-1,4.15.76.76,0,0,0,.2.54.61.61,0,0,0,.44.22,4.38,4.38,0,0,0,2.37-1.38,6.45,6.45,0,0,0,2-3.14Z"/><path class="cls-1" d="M120.83,153.71H118.6l1.05-4c.5-2,.95-3.84,1.33-5.61a7.62,7.62,0,0,0,.13-.82q0-.36-.33-.36a1.52,1.52,0,0,0-.69.3,15.81,15.81,0,0,0-1.67,1.52l-.46-.52a11.16,11.16,0,0,1,2.86-2.31,5.25,5.25,0,0,1,2.18-.77.65.65,0,0,1,.43.13.4.4,0,0,1,.16.32,7.23,7.23,0,0,1-.2,1l-.65,2.69a19.44,19.44,0,0,1,3.41-4.08,2.59,2.59,0,0,1,1.53-.81,1.05,1.05,0,0,1,.75.29.94.94,0,0,1,.3.68.92.92,0,0,1-.3.69,4.34,4.34,0,0,1-1.45.67,6.29,6.29,0,0,0-1.8.9,8.49,8.49,0,0,0-1.52,1.6,8.63,8.63,0,0,0-1.16,1.87,31.39,31.39,0,0,0-1,3.71Z"/><path class="cls-1" d="M128,144.66l-.51-.52a15.25,15.25,0,0,1,3-2.43,4.17,4.17,0,0,1,1.94-.6.79.79,0,0,1,.49.13.38.38,0,0,1,.18.31,2.55,2.55,0,0,1-.07.48l-.68,3a18.64,18.64,0,0,1,3.82-3.16,4.12,4.12,0,0,1,2-.76,1.17,1.17,0,0,1,.91.37,1.59,1.59,0,0,1,.33,1.08,4.61,4.61,0,0,1-.13,1c-.16.65-.58,2.06-1.25,4.23a17.44,17.44,0,0,0-1,4,.89.89,0,0,0,.09.45.28.28,0,0,0,.26.16c.29,0,.74-.28,1.36-.84.43-.4.87-.76,1.31-1.1l.37.53a13,13,0,0,1-2.85,2.44,3.12,3.12,0,0,1-1.55.6,1.05,1.05,0,0,1-.88-.41,2.24,2.24,0,0,1-.32-1.34,33.11,33.11,0,0,1,1.66-6.62,15.38,15.38,0,0,0,.51-2.19c0-.31-.18-.46-.55-.46a3.09,3.09,0,0,0-1.54.62,9.31,9.31,0,0,0-2.35,2.19,7.27,7.27,0,0,0-1,2.57l-1.21,5.22h-2.22c.42-1.5.78-2.93,1.09-4.29l1.33-5.69a2.52,2.52,0,0,0,.07-.49c0-.27-.1-.4-.3-.4a1.4,1.4,0,0,0-.68.31A9.06,9.06,0,0,0,128,144.66Z"/><path class="cls-1" d="M149.73,150l.5.66q-3.66,3.48-6.27,3.48a1.92,1.92,0,0,1-1.62-.72,3.7,3.7,0,0,1-.56-2.3,12,12,0,0,1,1.94-6.36q2.17-3.6,5.21-3.6a2.29,2.29,0,0,1,1.62.53,1.92,1.92,0,0,1,.56,1.46,3.33,3.33,0,0,1-.67,1.91A7.78,7.78,0,0,1,148,147c-.58.33-1.81.92-3.7,1.78a9.37,9.37,0,0,0-.14,1.54,2.45,2.45,0,0,0,.34,1.48,1.17,1.17,0,0,0,1,.41,3.16,3.16,0,0,0,1.34-.34A18.35,18.35,0,0,0,149.73,150Zm-5.22-2.16a11.66,11.66,0,0,0,3.61-2.32,2.53,2.53,0,0,0,.82-1.72,1.49,1.49,0,0,0-.33-1,1.14,1.14,0,0,0-.88-.38,1.71,1.71,0,0,0-1.07.42,4.12,4.12,0,0,0-1.18,1.67A15,15,0,0,0,144.51,147.8Z"/><path class="cls-1" d="M152.56,144.2l-.47-.71,1.1-.74a20.61,20.61,0,0,1,2.27-1.42,1.61,1.61,0,0,1,.69-.18.79.79,0,0,1,.6.36A14.11,14.11,0,0,1,159,146a18.1,18.1,0,0,1,.89,5.45c0,.23,0,.58,0,1q2.52-4.64,2.52-7.38a6.07,6.07,0,0,0-.25-1.51,6.83,6.83,0,0,1-.27-1.49,1,1,0,0,1,.28-.72.9.9,0,0,1,.69-.28,1,1,0,0,1,.85.4,1.85,1.85,0,0,1,.32,1.15,17.19,17.19,0,0,1-.88,4.8,31.07,31.07,0,0,1-2.77,6.19,25.21,25.21,0,0,1-3.45,4.91,11.05,11.05,0,0,1-3,2.3,6.45,6.45,0,0,1-2.75.69,2.54,2.54,0,0,1-1.49-.36,1.09,1.09,0,0,1-.5-.88,1,1,0,0,1,.39-.77,1.6,1.6,0,0,1,1-.32,6.94,6.94,0,0,1,1.39.2,7.28,7.28,0,0,0,1.29.21,3.29,3.29,0,0,0,1.92-.76,7.93,7.93,0,0,0,2.2-2.5,5.83,5.83,0,0,0,.82-2.92,24.62,24.62,0,0,0-.61-5,11.74,11.74,0,0,0-1.71-4.45,1.49,1.49,0,0,0-1.17-.79A4.19,4.19,0,0,0,152.56,144.2Z"/><path class="cls-1" d="M178.35,141.57a2.1,2.1,0,0,1,1-.48.62.62,0,0,1,.63.64c0,.39-.29.66-.86.81L178,144.79a9.54,9.54,0,0,0-.65,1.88,8.28,8.28,0,0,0-.22,1.93,20.94,20.94,0,0,0,.6,4A18.09,18.09,0,0,0,182,148.5c0-.43,0-.74,0-.94a11.51,11.51,0,0,1,1-5.19c.42-.83.9-1.25,1.41-1.25a.92.92,0,0,1,.77.4,1.84,1.84,0,0,1,.31,1.17,5.26,5.26,0,0,1-.24,1.45,17.26,17.26,0,0,1-.95,2.46,24.83,24.83,0,0,0,.57,6,20.28,20.28,0,0,0,3.48-3.07,10.36,10.36,0,0,0,1.87-2.83,6.4,6.4,0,0,0,.65-2.41,3.16,3.16,0,0,0-.34-1.2,3.64,3.64,0,0,1-.38-1.24.87.87,0,0,1,.28-.66,1,1,0,0,1,.7-.28.91.91,0,0,1,.79.47,3.49,3.49,0,0,1,.29,1.68,10.57,10.57,0,0,1-2.67,6.45,18.25,18.25,0,0,1-6.53,5.21,32.73,32.73,0,0,1-.88-4.84c-1.35,1.36-2.19,2.17-2.52,2.44a17.66,17.66,0,0,1-1.9,1.4,13.35,13.35,0,0,1-2,1c-.07-.56-.23-1.48-.47-2.74a23.11,23.11,0,0,1-.53-3.83,6.65,6.65,0,0,1,.76-3.05,7.5,7.5,0,0,1,2.26-2.64,10.22,10.22,0,0,0-3.85.63q-.78.38-.78.9a1.83,1.83,0,0,0,.18.62,1.77,1.77,0,0,1,.16.6.6.6,0,0,1-.19.46.69.69,0,0,1-.5.2.82.82,0,0,1-.66-.35,1.51,1.51,0,0,1-.27-1,2.29,2.29,0,0,1,1.07-1.94Q174.46,141.5,178.35,141.57Z"/><path class="cls-1" d="M193.75,144.61l-.65-.5a11.39,11.39,0,0,1,2.72-2.34,4.53,4.53,0,0,1,2.09-.7,1.14,1.14,0,0,1,.74.21.73.73,0,0,1,.25.57,27,27,0,0,1-1,3.68,36.91,36.91,0,0,0-1.58,6.39.61.61,0,0,0,.11.35.29.29,0,0,0,.22.14c.32,0,1.14-.62,2.45-1.85l.58.57a19.88,19.88,0,0,1-3,2.46,3.34,3.34,0,0,1-1.54.54,1.07,1.07,0,0,1-.83-.33,1.32,1.32,0,0,1-.31-.91q0-1.87,2.24-9.13a2.13,2.13,0,0,0,.11-.61q0-.3-.27-.3a1.3,1.3,0,0,0-.68.24A16.66,16.66,0,0,0,193.75,144.61Zm5.87-9.88a1,1,0,0,1,.76.3,1.09,1.09,0,0,1,.3.79,1.69,1.69,0,0,1-.45,1.16,1.39,1.39,0,0,1-1,.5,1,1,0,0,1-.74-.32,1.13,1.13,0,0,1-.3-.82,1.6,1.6,0,0,1,.43-1.14A1.36,1.36,0,0,1,199.62,134.73Z"/><path class="cls-1" d="M205.09,138.85l2.38-.91-1.08,4.18h3.1l-.24,1.06h-3.1l-1.3,5a14.48,14.48,0,0,0-.62,3.14.84.84,0,0,0,.17.58.63.63,0,0,0,.47.18,3.31,3.31,0,0,0,1.42-.55,18.55,18.55,0,0,0,2.39-1.66l.57.69a36.53,36.53,0,0,1-4.38,3,4.31,4.31,0,0,1-1.78.56,1.06,1.06,0,0,1-.87-.41,2.11,2.11,0,0,1-.32-1.31,14.73,14.73,0,0,1,.57-3.29l1.52-5.94h-2.42l.27-1.06h2.42Z"/><path class="cls-1" d="M223,150.54l.39.55a13.1,13.1,0,0,1-2.82,2.42,3.34,3.34,0,0,1-1.63.62,1,1,0,0,1-.84-.42,2.09,2.09,0,0,1-.32-1.3,9.18,9.18,0,0,1,.24-1.74c.17-.76.63-2.4,1.4-4.91a14.81,14.81,0,0,0,.51-2.16q0-.48-.51-.48a3.08,3.08,0,0,0-1.58.63,9.49,9.49,0,0,0-2.33,2.2,6.84,6.84,0,0,0-1,2.54l-1.17,5.22h-2.23c.48-1.74.85-3.16,1.11-4.27l2.19-9.57a11.86,11.86,0,0,1,1.58-4.09,7.22,7.22,0,0,1,2.55-2.29,6.48,6.48,0,0,1,3.11-.85,1.54,1.54,0,0,1,1,.32,1,1,0,0,1,.37.8.92.92,0,0,1-.37.72,1.5,1.5,0,0,1-1,.31,7.58,7.58,0,0,1-.93-.08,13.72,13.72,0,0,0-1.78-.19,1.35,1.35,0,0,0-1.12.56,7.67,7.67,0,0,0-.89,2.61l-1.67,7.37a19.09,19.09,0,0,1,3.87-3.15,4.1,4.1,0,0,1,2-.76,1.21,1.21,0,0,1,.91.34,1.33,1.33,0,0,1,.33,1,4.29,4.29,0,0,1-.12,1c-.13.59-.44,1.66-.92,3.2-.65,2.13-1,3.45-1.14,4A6.17,6.17,0,0,0,220,152a.6.6,0,0,0,.08.36.26.26,0,0,0,.24.12c.24,0,.69-.28,1.35-.85Z"/><path class="cls-1" d="M236,138.85l2.37-.91-1.07,4.18h3.09l-.24,1.06H237l-1.3,5a14.48,14.48,0,0,0-.62,3.14.84.84,0,0,0,.17.58.63.63,0,0,0,.47.18,3.31,3.31,0,0,0,1.42-.55,18.55,18.55,0,0,0,2.39-1.66l.57.69a36.53,36.53,0,0,1-4.38,3,4.28,4.28,0,0,1-1.77.56,1.08,1.08,0,0,1-.88-.41,2.11,2.11,0,0,1-.32-1.31,14.73,14.73,0,0,1,.57-3.29l1.52-5.94h-2.42l.27-1.06h2.42Z"/><path class="cls-1" d="M244.63,153.71h-2.22l1.05-4c.5-2,.95-3.84,1.32-5.61a6.3,6.3,0,0,0,.14-.82q0-.36-.33-.36a1.52,1.52,0,0,0-.69.3,14.84,14.84,0,0,0-1.67,1.52l-.46-.52a11.16,11.16,0,0,1,2.86-2.31,5.25,5.25,0,0,1,2.18-.77.65.65,0,0,1,.43.13.4.4,0,0,1,.16.32,7.23,7.23,0,0,1-.2,1l-.65,2.69a19.14,19.14,0,0,1,3.41-4.08,2.59,2.59,0,0,1,1.53-.81,1.05,1.05,0,0,1,.75.29,1,1,0,0,1,.29.68.91.91,0,0,1-.29.69,4.45,4.45,0,0,1-1.45.67,6.29,6.29,0,0,0-1.8.9,8.49,8.49,0,0,0-1.52,1.6,8.63,8.63,0,0,0-1.16,1.87,31.39,31.39,0,0,0-1,3.71Z"/><path class="cls-1" d="M261.44,141.54h2.12l-1.4,5.22a40.49,40.49,0,0,0-1.24,5.17.61.61,0,0,0,.13.43.4.4,0,0,0,.3.15,1.14,1.14,0,0,0,.6-.22,18.17,18.17,0,0,0,1.86-1.73l.5.55c-2,2.08-3.48,3.12-4.42,3.12a1.07,1.07,0,0,1-.82-.37,1.48,1.48,0,0,1-.33-1,9.42,9.42,0,0,1,.32-2.08,12.85,12.85,0,0,1-3.28,2.67,4.66,4.66,0,0,1-2.25.77,1,1,0,0,1-.82-.35,1.63,1.63,0,0,1-.3-1.09,6.42,6.42,0,0,1,.13-1.26q.19-.93,1-3.78a27.62,27.62,0,0,0,1-4.32q0-.42-.3-.42a1.53,1.53,0,0,0-.73.28,11.59,11.59,0,0,0-1.59,1.33l-.65-.52a18,18,0,0,1,3.05-2.35,4,4,0,0,1,1.7-.56.75.75,0,0,1,.58.26,1.26,1.26,0,0,1,.22.82,29,29,0,0,1-1.07,5.06,33.85,33.85,0,0,0-1,4.15.8.8,0,0,0,.2.54.62.62,0,0,0,.44.22,4.32,4.32,0,0,0,2.37-1.38,6.47,6.47,0,0,0,2-3.14Z"/><path class="cls-1" d="M272.27,141.15a3.56,3.56,0,0,1,2.06.51,1.47,1.47,0,0,1,.72,1.19,1,1,0,0,1-.3.7,1,1,0,0,1-.74.3,1,1,0,0,1-.5-.12,2.73,2.73,0,0,1-.59-.64,2,2,0,0,0-1.45-1,1.53,1.53,0,0,0-1.09.47,1.58,1.58,0,0,0-.46,1.17,2.55,2.55,0,0,0,.29,1.19,10.76,10.76,0,0,0,1.51,1.85,5.06,5.06,0,0,1,1.66,3.34,3.58,3.58,0,0,1-1.35,2.77,5,5,0,0,1-3.46,1.19,4.08,4.08,0,0,1-2.64-.73,2.23,2.23,0,0,1-.87-1.78,1.21,1.21,0,0,1,.33-.87,1.07,1.07,0,0,1,.81-.34,1,1,0,0,1,.71.27.88.88,0,0,1,.3.65,3,3,0,0,1,0,.39c0,.13,0,.24,0,.33a1.05,1.05,0,0,0,.42.84,1.63,1.63,0,0,0,1.1.34,3.26,3.26,0,0,0,1.41-.28,2.1,2.1,0,0,0,1-.83,2.17,2.17,0,0,0,.34-1.11,2.14,2.14,0,0,0-.32-1.08,16.38,16.38,0,0,0-1.44-1.77,5.08,5.08,0,0,1-1.56-3.33,3.4,3.4,0,0,1,1.18-2.55A4.25,4.25,0,0,1,272.27,141.15Z"/><path class="cls-1" d="M280,138.85l2.37-.91-1.08,4.18h3.1l-.24,1.06H281l-1.3,5a14.48,14.48,0,0,0-.62,3.14.84.84,0,0,0,.17.58.63.63,0,0,0,.47.18,3.31,3.31,0,0,0,1.42-.55,18.55,18.55,0,0,0,2.39-1.66l.57.69a36.53,36.53,0,0,1-4.38,3,4.28,4.28,0,0,1-1.77.56,1.08,1.08,0,0,1-.88-.41,2.11,2.11,0,0,1-.32-1.31,14.73,14.73,0,0,1,.57-3.29l1.52-5.94h-2.42l.27-1.06h2.42Z"/><polygon class="cls-1" points="291.53 60.12 335.89 60.12 331.3 18.89 295.6 18.49 291.53 60.12"/><path class="cls-1" d="M337.75,61.78H289.7l4.39-45,38.69.42Zm-44.39-3.32H334l-4.23-37.93-32.71-.36Z"/><path class="cls-1" d="M336.77,72.76h-46.3c-1.71,0-3.05-1.73-3.05-3.93s1.34-3.93,3.05-3.93h46.3c1.37,0,2.72-1.51,3.28-3.68L353.77,6.51a3.17,3.17,0,0,1,2.91-2.69h14.23c1.71,0,3,1.72,3,3.93s-1.34,3.93-3,3.93h-12L345.86,63.75C344.46,69.14,340.81,72.76,336.77,72.76Z"/><path class="cls-1" d="M50.37,41.53c-4.72-3.11-10.52-4.69-17.25-4.69s-12.62,1.59-17.3,4.73c-5,3.37-7.59,7.73-7.59,13s2.57,9.65,7.65,13c4.72,3.11,10.52,4.69,17.24,4.69a29.71,29.71,0,0,0,8.74-1.12,40.08,40.08,0,0,0,6.76-2.83l.37-.2v3.55h9V54.52C58,49.26,55.45,44.88,50.37,41.53ZM49,58.81l-3.13,2.1A22.5,22.5,0,0,1,40,63.73a23.6,23.6,0,0,1-6.91.92,20,20,0,0,1-11.29-3.26c-3-2-4.38-4.16-4.38-6.87s1.43-4.91,4.38-6.86a20,20,0,0,1,11.29-3.25c4.79,0,8.74,1.1,11.74,3.28,2.78,2,4.13,4.25,4.13,6.83Z"/><path class="cls-1" d="M122.26,39.94a23.51,23.51,0,0,0-12.51-3.1,25.67,25.67,0,0,0-9.9,1.64A13.85,13.85,0,0,0,96,40.9a13,13,0,0,0-3.82-2.42,25.38,25.38,0,0,0-9.8-1.64A23.38,23.38,0,0,0,69.88,40a11.06,11.06,0,0,0-5.7,9.88V71.61h9V49.85a4,4,0,0,1,2.21-3.71,14.8,14.8,0,0,1,13.87,0,4,4,0,0,1,2.18,3.72V71.61h9V49.85a4,4,0,0,1,2.16-3.74,13.53,13.53,0,0,1,7.07-1.7,13.14,13.14,0,0,1,7,1.72,4,4,0,0,1,2.18,3.72V71.61h9V49.85A11.08,11.08,0,0,0,122.26,39.94Z"/><path class="cls-1" d="M173.62,41.53c-4.72-3.11-10.53-4.69-17.25-4.69s-12.62,1.59-17.31,4.73c-5,3.37-7.59,7.73-7.59,13s2.58,9.65,7.65,13c4.73,3.11,10.53,4.69,17.25,4.69a29.59,29.59,0,0,0,8.73-1.12,39.54,39.54,0,0,0,6.76-2.83l.37-.2v3.55h9V54.52C181.27,49.25,178.7,44.88,173.62,41.53Zm-1.39,17.28-3.13,2.1a22,22,0,0,1-5.83,2.82,23.53,23.53,0,0,1-6.9.92,20.09,20.09,0,0,1-11.29-3.25c-3-2-4.38-4.21-4.38-6.88s1.43-4.91,4.37-6.86a20.07,20.07,0,0,1,11.3-3.25c4.78,0,8.73,1.1,11.74,3.28,2.78,2,4.12,4.25,4.12,6.83Z"/><path class="cls-1" d="M223.09,40.53c-3.89-2.45-8.77-3.69-14.51-3.69a26.72,26.72,0,0,0-14.47,3.72c-4.31,2.72-6.49,6.36-6.49,10.81V71.61h9V51.67c0-2,1-3.55,3-4.92a18.08,18.08,0,0,1,17.79,0c2.06,1.36,3,2.93,3,4.92V71.61h9V51.37C229.53,46.88,227.36,43.23,223.09,40.53Z"/><path class="cls-1" d="M275.33,41.53c-4.72-3.11-10.52-4.69-17.25-4.69s-12.62,1.59-17.3,4.73c-5,3.37-7.59,7.73-7.59,13s2.57,9.65,7.65,13c4.72,3.11,10.52,4.69,17.24,4.69a29.71,29.71,0,0,0,8.74-1.12,39.41,39.41,0,0,0,6.76-2.83l.37-.2v3.55h9V54.52C283,49.26,280.41,44.89,275.33,41.53ZM274,58.81l-3.14,2.1A22,22,0,0,1,265,63.73a23.6,23.6,0,0,1-6.91.92,20,20,0,0,1-11.29-3.26c-2.94-2-4.38-4.2-4.38-6.87s1.44-4.91,4.38-6.86a20,20,0,0,1,11.29-3.25c4.78,0,8.73,1.1,11.74,3.28,2.78,2,4.13,4.24,4.13,6.83Z"/><path class="cls-1" d="M30.77,128.53H9.23V80.08H29.94c12.18,0,18.31,5.56,18.31,12.31,0,6.11-4.56,9.66-10.11,11.19,6.3.9,11.43,6,11.43,12C49.57,122.83,42.7,128.53,30.77,128.53ZM29.28,85.3H16.77V101H29.44c7,0,11.1-2.92,11.1-7.86S36.65,85.3,29.28,85.3Zm.58,20.92H16.77v17.1H30.11c7.45,0,11.93-3.13,11.93-8.41S37.23,106.22,29.86,106.22Z"/><path class="cls-1" d="M55.05,80.08h7.54v48.45H55.05Z"/><path class="cls-1" d="M123.23,94.12h-9c-3.15-5.63-9.44-8.89-17.56-8.89-12.18,0-21.3,7.37-21.3,19s9.12,19,21.3,19c11.35,0,19.14-6.12,20.3-15.71h-23v-5.15H125v4.87c-1.32,12-12.67,21.69-28.33,21.69-16.24,0-29-10.15-29-24.68s12.76-24.74,29-24.74C108.82,79.53,118.92,84.81,123.23,94.12Z"/><path class="cls-1" d="M168.64,128.53H147.1V80.08h20.71c12.18,0,18.31,5.56,18.31,12.31,0,6.11-4.55,9.66-10.11,11.19,6.3.9,11.44,6,11.44,12C187.45,122.83,180.57,128.53,168.64,128.53ZM167.15,85.3H154.64V101h12.68c7,0,11.1-2.92,11.1-7.86S174.52,85.3,167.15,85.3Zm.58,20.92H154.64v17.1H168c7.45,0,11.93-3.13,11.93-8.41S175.1,106.22,167.73,106.22Z"/><path class="cls-1" d="M227.05,117.76H201.87l-4.64,10.77h-8l20.88-48.17h8.7l20.8,48.17h-8ZM214.46,88.15,204,112.61H224.9Z"/><path class="cls-1" d="M278.18,85.09l-28,38h28.17v5.49H241.23v-5l28-37.95H241.56v-5.5h36.62Z"/><path class="cls-1" d="M317.78,117.76H292.6L288,128.53h-8l20.88-48.17h8.7l20.79,48.17h-7.95ZM305.19,88.15l-10.44,24.46h20.88Z"/><path class="cls-1" d="M353.16,80.08c13.59,0,20,6.33,20,14.25,0,6.19-4.06,12.1-13.75,13.9l14.5,20.3h-9l-13.76-19.81h-9.11v19.81h-7.54V80.08Zm0,5.22h-11.1v18.35h11.1c8.54,0,12.26-3.9,12.26-9.32S361.78,85.3,353.16,85.3Z"/></svg>